<?xml version="1.0" encoding="UTF-8" standalone="no"?>
<!-- Created with Inkscape (http://www.inkscape.org/) -->

<svg
   version="1.1"
   id="svg1"
   width="4000"
   height="4000"
   viewBox="0 0 4000 4000"
   xmlns="http://www.w3.org/2000/svg"
   xmlns:svg="http://www.w3.org/2000/svg">
  <defs
     id="defs1" />
  <g
     id="g1">
    <path
       style="fill:#fff02b;fill-opacity:1"
       d="m 1640.5457,2912.4125 -2.108,-0.8584 -0.642,-3.2098 c -0.353,-1.7653 -0.6419,-115.6166 -0.6419,-253.0029 0,-137.3863 -0.2731,-250.505 -0.607,-251.375 -0.7607,-1.9823 -3.4143,-2.0329 -5.9519,-0.1136 l -1.9411,1.4682 -199.6849,0.032 -199.6849,0.032 -2.4099,-0.9163 c -1.3255,-0.5039 -3.1548,-1.661 -4.0651,-2.5714 l -1.6552,-1.6556 v -684.3035 c 0,-376.367 0.2863,-685.7353 0.6363,-687.4852 l 0.6363,-3.1816 3.5959,-2.4434 3.5958,-2.4434 h 401.8667 401.8667 l 3.1512,1.3607 c 1.7331,0.7484 7.2934,2.3561 12.3562,3.5726 l 9.2052,2.212 11.2948,-0.034 c 11.1083,-0.033 20.7949,1.3134 20.7949,2.8902 0,1.3084 5.1105,2.6502 11,2.8881 3.025,0.1222 7.3,0.636 9.5,1.1417 2.2,0.5057 7.375,0.95 11.5,0.9874 9.5483,0.087 15.3824,1.2204 17.5783,3.4163 2.637,2.6371 5.9851,3.5898 15.7966,4.4952 l 8.9755,0.8282 1.0748,1.4494 c 1.6074,2.1676 10.0845,4.7751 18.8622,5.8018 l 7.7874,0.9109 3.0399,3.0399 c 3.2055,3.2056 4.453,3.6516 12.2113,4.3662 l 4.826,0.4445 2.674,2.492 c 3.8619,3.5992 6.5155,4.7365 11.0516,4.7365 h 4.009 l 1.3165,1.75 c 2.7886,3.7068 5.7243,5.343 11.1796,6.2309 l 5.6591,0.9211 3.3472,3.549 3.3472,3.549 h 2.7172 2.7173 l 3.0872,3.4871 3.0872,3.487 3.5774,0.6003 c 5.9362,0.996 6.8406,1.4116 7.3554,3.3802 0.2716,1.0385 2.4095,2.8656 4.751,4.0602 2.3415,1.1945 5.3507,3.4713 6.6872,5.0596 l 2.4299,2.8878 3.927,1.0575 3.927,1.0574 v 1.4614 c 0,2.2655 3.7365,5.4615 6.385,5.4615 h 2.385 l 1.5807,2.4125 c 0.8695,1.3269 3.4541,3.2391 5.7437,4.2493 l 4.163,1.8367 3.3637,5.2583 3.3637,5.2584 5.3955,3.4514 5.3955,3.4514 1.0194,2.9244 c 0.5607,1.6085 2.7367,4.2144 4.8355,5.791 5.6406,4.2371 11.3047,10.3704 13.4676,14.5832 1.0495,2.0441 2.7915,4.1892 3.871,4.767 l 1.9628,1.0504 1.0521,3.9072 1.0521,3.9072 2.9686,1.3141 2.9686,1.314 1.5132,3.782 c 0.8323,2.0801 1.5133,4.4375 1.5133,5.2387 0,0.8012 1.1209,2.1911 2.4908,3.0887 l 2.4908,1.6321 1.0903,4.049 c 0.5997,2.227 2.443,5.4017 4.0963,7.0551 3.3724,3.3724 4.8272,6.5253 4.8415,10.493 l 0.01,2.6849 3.4088,4.2877 3.4087,4.2877 0.7293,4.2123 c 0.401,2.3168 0.8592,5.3256 1.018,6.6863 0.1589,1.3606 1.6143,3.6106 3.2343,5 l 2.9454,2.526 1.1705,4.9011 c 0.6437,2.6955 1.8551,6.2249 2.6918,7.8429 0.8367,1.618 1.2701,3.193 0.9631,3.5001 -0.307,0.307 0.092,1.0526 0.8875,1.657 l 1.4457,1.0989 1.0006,6.5 c 0.5503,3.575 1.0823,8.525 1.1824,11 0.1862,4.6078 1.7558,8.1245 5.0386,11.289 l 1.8559,1.7889 v 4.2774 c 0,7.5492 3.3253,23.8817 5.4052,26.5484 l 1.0948,1.4037 v 50.5963 50.5963 l -2.7775,8.6418 c -1.5277,4.7531 -3.0189,11.7281 -3.314,15.5 -0.7415,9.4801 -1.2217,11.3582 -2.9045,11.3582 -2.578,0 -4.2452,4.2738 -5.4354,13.9332 l -1.1624,9.4333 -2.2785,2.2785 -2.2786,2.2786 -1.6787,6.0382 -1.6788,6.0382 h -1.3408 c -2.1517,0 -4.3232,3.1874 -5.1096,7.5 -0.4011,2.2 -0.9778,5.35 -1.2815,7 -0.3037,1.65 -1.325,3.545 -2.2696,4.2112 -0.9446,0.6662 -2.9152,3.6594 -4.3792,6.6517 -1.464,2.9922 -3.7567,6.1578 -5.095,7.0347 l -2.4332,1.5943 -1.1996,4.0041 c -0.6598,2.2022 -1.6909,4.0183 -2.2914,4.0358 -2.4261,0.071 -4.8238,3.0564 -5.737,7.144 l -0.966,4.3242 -4.1944,4.1399 c -7.0662,6.9746 -8.4584,8.7206 -10.053,12.6079 l -1.5374,3.7477 -2.5327,1.154 c -1.393,0.6347 -2.7924,1.9719 -3.1096,2.9716 -0.4704,1.4821 -11.9567,13.2448 -30.6563,31.3942 -1.4821,1.4384 -4.2102,3.0338 -6.0625,3.5453 l -3.3678,0.9299 -1.6713,3.5047 c -0.9193,1.9277 -2.3477,3.5048 -3.1744,3.5048 -0.8267,0 -5.2215,3.3064 -9.7662,7.3476 -4.5447,4.0411 -9.877,7.9299 -11.8496,8.6417 -1.9726,0.7119 -5.2848,2.8055 -7.3604,4.6525 -2.0757,1.847 -4.3936,3.3582 -5.151,3.3582 -0.7573,0 -2.5006,1.7798 -3.8738,3.9551 l -2.4967,3.9552 -4.2658,1.2176 c -2.3462,0.6697 -5.4779,2.4899 -6.9594,4.0449 -1.4815,1.5549 -3.3667,2.8272 -4.1892,2.8272 -0.8226,0 -3.527,1.7582 -6.0099,3.9071 -2.4828,2.1489 -6.2227,4.4671 -8.3108,5.1516 -4.8803,1.5998 -8.2965,3.8342 -8.2965,5.4263 v 1.2551 l 4.25,1.0714 c 2.3375,0.5892 5.9436,1.2954 8.0135,1.5692 l 3.7635,0.4979 2.376,2.8238 2.376,2.8237 4.6249,1.2369 c 2.5436,0.6804 5.8312,1.237 7.3057,1.237 h 2.681 l 2.7466,2.6314 2.7466,2.6314 5.0408,1.3076 c 2.7725,0.7192 6.7361,2.6479 8.8081,4.286 2.072,1.6382 5.6426,3.5257 7.9347,4.1946 l 4.1673,1.2161 -0.4588,1.1958 -0.4589,1.1959 3.7915,1.6331 c 2.0853,0.8982 5.704,2.1173 8.0415,2.7091 l 4.25,1.0761 v 1.2871 c 0,1.9754 4.3729,5.6358 6.7327,5.6358 3.1086,0 5.2673,1.0387 5.2673,2.5344 0,1.8145 4.496,5.196 7.9037,5.9444 l 2.8097,0.6172 1.2844,2.3999 c 0.7064,1.3199 2.9305,3.0585 4.9425,3.8635 l 3.6581,1.4637 1.1668,2.5608 1.1667,2.5608 3.7841,1.5791 c 3.9053,1.6297 6.553,4.2517 10.8312,10.7262 1.3628,2.0625 3.1472,3.75 3.9653,3.75 0.8181,0 1.4875,0.45 1.4875,1 0,0.55 -0.45,1 -1,1 -1.7002,0 -1.1065,1.4524 1.1766,2.8782 l 2.1766,1.3593 1.26,-1.7232 c 1.9447,-2.6596 3.6581,-1.3545 5.8859,4.4835 l 2.0396,5.3445 3.7127,2.0789 c 4.1027,2.2972 8.5017,7.215 11.2519,12.5788 0.987,1.925 2.6341,4.0926 3.6601,4.8169 1.0261,0.7243 2.493,2.8184 3.2598,4.6536 l 1.3942,3.3368 2.1147,0.6711 2.1146,0.6712 2.8924,5.6752 c 1.5908,3.1214 3.8303,6.4583 4.9766,7.4154 l 2.0843,1.7402 v 3.0608 3.0608 l 3.3888,3.199 3.3889,3.199 1.7318,5.5 c 0.9526,3.025 3.0276,7.8048 4.6112,10.6217 l 2.8793,5.1218 v 6.1282 6.1283 l 2,1.75 c 1.1,0.9625 2.9,2.5375 4,3.5 l 2,1.75 v 3.4109 c 0,1.876 0.8942,6.2635 1.9871,9.75 1.0929,3.4865 1.9929,7.2616 2,8.3891 0.01,1.1275 0.5754,2.612 1.2629,3.2988 l 1.25,1.2488 0.2509,26.2012 c 0.138,14.4107 0.2505,26.7905 0.25,27.5107 l -9e-4,1.3096 4.9641,-4.1859 4.9642,-4.1858 1.1159,-3.3814 c 0.6138,-1.8597 1.9807,-3.8441 3.0375,-4.4097 1.0569,-0.5657 2.5578,-2.551 3.3353,-4.4119 0.7775,-1.8609 2.3243,-3.8708 3.4373,-4.4664 1.113,-0.5957 3.2458,-3.3286 4.7396,-6.0731 l 2.7159,-4.9902 3.3451,-1.9736 3.3451,-1.9736 v -3.0893 -3.0893 l 6.269,-6.269 c 3.448,-3.448 7.14,-8.2004 8.2044,-10.561 l 1.9354,-4.2919 3.7029,-2.3375 3.7028,-2.3375 1.1411,-3.4576 c 0.6276,-1.9016 1.7604,-3.6952 2.5172,-3.9856 0.7568,-0.2904 2.1541,-2.1676 3.105,-4.1715 0.9509,-2.0039 2.7216,-4.0208 3.9349,-4.4821 l 2.206,-0.8388 0.6525,-3.2626 c 0.7017,-3.5084 3.2108,-6.8938 5.1095,-6.8938 1.9321,0 5.2109,-4.287 5.8361,-7.6306 l 0.5854,-3.1305 5.6334,-5.8695 c 3.0983,-3.2281 6.7127,-7.9768 8.0319,-10.5526 l 2.3985,-4.6831 3.767,-2.3169 c 2.0718,-1.2742 3.8045,-3.1043 3.8503,-4.0668 0.2243,-4.7095 0.5644,-5.5554 2.4301,-6.0432 l 2.0133,-0.5266 1.5812,-3.8401 c 0.8697,-2.112 2.7761,-5.0061 4.2366,-6.4313 5.498,-5.3649 11.5594,-13.095 13.2777,-16.933 l 1.78,-3.9758 h 1.5489 c 0.8519,0 1.7047,0.1125 1.8952,0.25 0.1905,0.1375 1.0714,-0.3517 1.9576,-1.0872 l 1.6112,-1.3372 -0.5315,-2.6628 -0.5315,-2.6628 3.0372,-4.1906 c 1.6704,-2.3048 5.0713,-5.6798 7.5574,-7.5 l 4.5201,-3.3094 1.1476,-3.6588 c 0.6311,-2.0123 2.3834,-4.5724 3.8939,-5.6892 l 2.7463,-2.0305 0.6216,-3.3107 0.6216,-3.3108 3.2652,-2.6044 c 1.7959,-1.4325 4.1589,-4.346 5.2511,-6.4745 1.0923,-2.1286 3.0034,-5.0066 4.2469,-6.3956 1.2436,-1.389 2.5041,-3.29 2.8012,-4.2243 0.2971,-0.9344 1.5296,-2.0001 2.739,-2.3683 3.5183,-1.0712 5.6988,-3.5344 5.6988,-6.4378 v -2.695 l 3.062,-4.227 3.062,-4.227 3.4662,-1.4482 3.4662,-1.4483 1.4107,-3.2248 c 0.7759,-1.7736 1.6524,-4.3852 1.9478,-5.8034 l 0.5371,-2.5785 2.5441,-1.1592 c 1.3992,-0.6375 3.0104,-2.4021 3.5803,-3.9214 0.5699,-1.5193 2.1936,-3.8466 3.6082,-5.1718 1.4146,-1.3252 3.6872,-4.8452 5.0501,-7.8222 1.3629,-2.977 3.1243,-5.6607 3.9143,-5.9638 0.7899,-0.3032 2.3106,-2.2652 3.3793,-4.36 l 1.9432,-3.8089 2.7524,-0.3178 2.7524,-0.3178 0.6106,-3.7879 c 0.7907,-4.9055 5.7026,-11.7433 10.0172,-13.9449 l 3.3959,-1.7328 2.1324,-5.2672 2.1323,-5.2672 2.3506,-1.2084 c 3.1183,-1.603 4.8847,-4.1448 4.8847,-7.0292 v -2.3554 l 2.8726,-1.6487 2.8727,-1.6487 1.6421,-4.5664 1.6421,-4.5665 3.4852,-2.781 c 1.9169,-1.5295 3.4853,-3.2923 3.4853,-3.9173 0,-0.625 1.575,-2.579 3.5,-4.3423 l 3.5,-3.2058 v -2.714 -2.7139 l 3.25,-3.042 c 1.7875,-1.6731 4.9375,-4.1092 7,-5.4137 l 3.75,-2.3718 v -2.0371 c 0,-1.1204 0.6858,-3.3632 1.5239,-4.984 l 1.5239,-2.9469 3.4172,-1.4278 3.4172,-1.4278 1.1572,-4.2976 c 0.6365,-2.3636 2.4894,-5.6602 4.1176,-7.3256 l 2.9603,-3.0281 114.1914,-0.2786 c 122.4228,-0.2988 117.3844,-0.4374 121.1561,3.3343 l 2.5352,2.5352 v 679.4859 679.486 l -1.6403,0.6294 -1.6403,0.6295 1.8682,1.366 1.8682,1.3661 -1.0602,1.6809 c -1.9937,3.1606 -7.4659,3.2985 -120.3002,3.0321 l -112.9958,-0.2668 -1.2998,-1.3 -1.2998,-1.3 -0.2529,-510.45 -0.2529,-510.45 h -1.429 c -1.5603,0 -5.5652,5.0636 -5.5652,7.0363 0,1.9606 -4.2122,8.2538 -7.2304,10.8026 -1.5233,1.2864 -2.7696,2.9465 -2.7696,3.6892 0,0.7426 -1.8058,3.5151 -4.0128,6.1611 -2.207,2.6459 -6.1445,7.4108 -8.75,10.5887 -2.6055,3.1778 -6.1156,7.4528 -7.8004,9.5 -1.6848,2.0471 -3.6436,5.7289 -4.3529,8.1817 l -1.2898,4.4597 -3.897,3.5622 c -2.1434,1.9593 -3.8971,4.0452 -3.8971,4.6354 0,0.5902 -0.9621,1.9304 -2.138,2.9781 -1.1759,1.0478 -2.7569,3.3673 -3.5132,5.1545 -0.7564,1.7872 -2.9387,4.2622 -4.8496,5.5 -1.9109,1.2378 -3.48,2.8117 -3.4868,3.4976 -0.01,0.6859 -1.5867,2.9897 -3.5109,5.1196 -1.9242,2.1299 -4.3967,5.9027 -5.4943,8.3841 -1.0976,2.4814 -3.1233,5.2505 -4.5015,6.1535 -1.3781,0.903 -2.5057,2.3008 -2.5057,3.1062 0,0.8054 -1.7951,2.5976 -3.9891,3.9826 l -3.9891,2.5182 -0.6779,4.2444 -0.6779,4.2443 -4.333,4.2127 c -2.3832,2.317 -4.333,4.8886 -4.333,5.7148 0,0.8262 -0.9296,1.9996 -2.0657,2.6077 -1.1361,0.608 -2.8964,3.0435 -3.9118,5.4123 l -1.8461,4.3068 -3.0882,1.367 c -1.6985,0.7518 -3.0882,1.6157 -3.0882,1.9197 0,0.304 -2.025,3.6359 -4.5,7.4042 -2.475,3.7682 -4.5,7.4826 -4.5,8.2541 0,0.7714 -1.5298,2.8422 -3.3996,4.6017 -1.8698,1.7594 -3.7083,4.2373 -4.0856,5.5063 -0.3773,1.269 -1.7498,2.7117 -3.05,3.2061 l -2.3641,0.8988 -1.0666,3.7939 c -1.2805,4.5551 -2.5959,6.2553 -6.547,8.4629 l -2.9871,1.669 -1.0829,4.331 -1.0828,4.331 -2.6672,0.943 c -1.4669,0.5187 -2.6671,1.3049 -2.6671,1.7472 0,0.4422 -1.4927,2.4928 -3.317,4.5569 -3.1558,3.5705 -6.683,9.9246 -6.683,12.039 0,0.5411 -1.1626,1.7456 -2.5835,2.6767 -1.421,0.931 -3.227,3.2328 -4.0134,5.115 -0.7865,1.8822 -2.0662,3.4222 -2.8439,3.4222 -1.8396,0 -5.5592,4.7478 -5.5592,7.0959 0,1.0044 -0.8297,2.6312 -1.8437,3.6151 -1.0141,0.984 -2.7016,3.2943 -3.75,5.1342 -1.0485,1.8398 -3.5788,4.2038 -5.6229,5.2532 -4.1074,2.1088 -5.2124,3.7067 -6.1556,8.9016 l -0.6355,3.5 -3.4452,3.75 c -1.8948,2.0625 -3.9005,3.75 -4.4572,3.75 -1.9722,0 -4.91,4.2286 -6.0312,8.6811 l -1.1365,4.5135 -2.9611,2.4916 c -1.6286,1.3704 -2.9611,3.1205 -2.9611,3.8893 0,0.7687 -1.5388,2.0406 -3.4195,2.8264 -3.9512,1.6509 -5.5805,4.1669 -5.5805,8.6177 v 3.1511 l -3.7454,3.1646 c -6.5344,5.5213 -11.2987,10.9819 -11.8787,13.6149 -1.1654,5.2896 -1.5077,5.8661 -3.8291,6.4487 l -2.3816,0.5977 -2.1642,3.5017 c -1.1902,1.9259 -2.5871,3.5017 -3.104,3.5017 -0.5169,0 -1.3311,1.0125 -1.8092,2.25 -0.4781,1.2375 -1.6384,4.1108 -2.5786,6.3851 l -1.7093,4.135 -2.4485,1.1157 c -1.3467,0.6135 -2.9892,2.4 -3.65,3.9699 -0.6608,1.5698 -2.6048,4.0348 -4.3201,5.4777 l -3.1188,2.6235 -0.6294,3.9361 -0.6294,3.936 -3.7866,2.9991 c -2.0826,1.6494 -4.383,4.1134 -5.1119,5.4754 -0.729,1.362 -2.4045,3.0539 -3.7234,3.7598 l -2.3981,1.2834 -1.0258,3.8096 -1.0258,3.8097 -1.9557,1.0466 c -1.0756,0.5757 -2.6593,2.4073 -3.5192,4.0702 -0.86,1.663 -2.3435,3.8035 -3.2969,4.7569 -2.4474,2.4474 -5.7971,8.2075 -6.4901,11.1603 -0.3227,1.375 -1.5892,2.95 -2.8144,3.5 -1.2252,0.55 -3.0933,2.5672 -4.1514,4.4827 -1.058,1.9154 -2.8129,4.1054 -3.8996,4.8666 -1.0867,0.7611 -2.859,3.4443 -3.9385,5.9626 l -1.9627,4.5787 -3.9518,3.3826 c -2.1735,1.8605 -3.9518,4.2317 -3.9518,5.2695 0,1.0378 -0.9356,2.3876 -2.079,2.9996 -1.1435,0.612 -2.5423,2.4415 -3.1084,4.0656 l -1.0294,2.9529 -2.8701,1.4841 -2.87,1.4842 -2.0835,4.8432 c -1.1459,2.6637 -3.3885,5.808 -4.9835,6.9872 l -2.9,2.1441 -1.0472,3.8892 -1.0473,3.8892 -2.4908,1.6321 c -1.3699,0.8976 -2.4908,2.2639 -2.4908,3.0361 0,0.7723 -1.5174,2.6745 -3.372,4.227 -3.4964,2.927 -5.8749,6.8518 -7.0021,11.5546 l -0.6549,2.7318 -2.9558,1.5286 c -1.6258,0.8407 -3.4351,2.4238 -4.0207,3.5182 l -1.0649,1.9896 h -2.8934 c -2.847,0 -6.0362,-2.1867 -6.0362,-4.1388 v -0.996 l -1.9225,0.6102 -1.9225,0.6102 -2.9639,-4.2928 c -3.0848,-4.468 -9.5195,-10.7928 -10.9803,-10.7928 -0.4634,0 -1.8492,-1.7912 -3.0796,-3.9804 -1.2304,-2.1892 -3.0633,-4.5591 -4.0731,-5.2664 -1.0098,-0.7073 -2.5392,-2.969 -3.3987,-5.0259 l -1.5627,-3.74 -2.5204,-0.9583 -2.5204,-0.9583 -0.6623,-2.7853 c -0.688,-2.8939 -3.1167,-6.2854 -4.501,-6.2854 -0.4385,0 -3.0253,-2.2279 -5.7483,-4.951 l -4.951,-4.9509 -1.648,-4.9618 c -1.6303,-4.9083 -2.9464,-6.1363 -6.5764,-6.1363 -2.7367,0 -7.8306,-5.8903 -9.0801,-10.5 -1.2884,-4.7529 -2.5124,-6.4064 -5.6156,-7.5862 -1.27,-0.4829 -2.7429,-2.0191 -3.2732,-3.4138 -0.5303,-1.3947 -2.0972,-2.9667 -3.4821,-3.4932 l -2.5182,-0.9569 v -1.8899 c 0,-2.54 -3.7358,-7.1525 -5.8226,-7.1888 l -1.6774,-0.029 -4.0697,-6.7207 -4.0696,-6.7208 -4.0767,-3 c -2.2422,-1.65 -4.9904,-4.5778 -6.1073,-6.5061 -1.1168,-1.9284 -3.1884,-4.5129 -4.6036,-5.7434 l -2.5731,-2.2376 v -2.3516 c 0,-2.414 -2.7582,-5.6616 -4.8084,-5.6616 -0.633,0 -2.0526,-1.7673 -3.1545,-3.9273 -1.102,-2.16 -2.916,-4.2169 -4.0313,-4.5709 -1.1153,-0.3539 -2.7458,-2.0322 -3.6235,-3.7294 -0.8777,-1.6973 -4.7105,-6.2505 -8.5175,-10.1183 l -6.9216,-7.0323 -0.5551,-2.5609 c -1.0173,-4.6929 -1.3404,-5.143 -4.6989,-6.5463 l -3.3389,-1.3951 -1.6265,-4.1406 -1.6265,-4.1407 -1.838,-0.4806 c -1.0109,-0.2644 -2.2703,-1.4655 -2.7987,-2.6692 -0.5283,-1.2036 -2.4134,-2.8634 -4.189,-3.6884 l -3.2283,-1.5 -0.092,-2.5 c -0.051,-1.375 -0.3978,-3.2652 -0.7717,-4.2003 -0.809,-2.0238 -10.9856,-9.7997 -12.8251,-9.7997 -2.1899,0 -3.3546,-3.5979 -3.3546,-10.3628 v -6.4943 l 1.5714,-1.5715 c 0.8643,-0.8643 2.3821,-1.5714 3.3728,-1.5714 2.1753,0 6.899,-5.3432 10.1629,-11.4959 1.3142,-2.4772 2.9055,-4.5041 3.5362,-4.5041 0.6307,0 2.2065,-1.2058 3.5017,-2.6795 1.2953,-1.4737 4.0265,-4.3654 6.0694,-6.4261 l 3.7144,-3.7466 0.3766,-3.6708 0.3766,-3.6708 3.6771,-3.3687 3.6771,-3.3687 0.6156,-3.0779 0.6156,-3.0778 2.7322,-1.4129 2.7322,-1.4129 0.6914,-6.1112 c 0.8406,-7.4301 1.385,-8.9761 3.1607,-8.9761 2.387,0 4.8215,-5.0889 5.4805,-11.4559 l 0.637,-6.1546 2.6493,-2.6493 c 1.4571,-1.4571 2.6493,-3.6626 2.6493,-4.9011 0,-1.2385 0.7523,-6.7675 1.6718,-12.2866 l 1.6718,-10.0349 2.3041,-1.8124 c 1.2672,-0.9968 2.877,-3.7008 3.5773,-6.0088 l 1.2731,-4.1964 -0.051,-31 c -0.052,-31.3561 -0.4428,-36.5 -2.7748,-36.5 -0.7094,0 -2.0809,-0.5784 -3.0476,-1.2853 l -1.7579,-1.2854 -0.8941,-7.4646 c -0.4918,-4.1056 -1.4276,-10.0728 -2.0797,-13.2605 l -1.1855,-5.7958 -1.9008,-1.3314 -1.9008,-1.3313 -1.0534,-6.8729 c -1.0406,-6.7885 -2.929,-10.3728 -5.4649,-10.3728 h -1.3027 l -2.067,-6.9404 -2.0669,-6.9404 -1.9443,-0.6171 -1.9443,-0.6171 -0.9705,-3.5149 c -0.5337,-1.9332 -2.6852,-5.3972 -4.7811,-7.6978 -2.0958,-2.3006 -5.3856,-6.1884 -7.3106,-8.6396 -3.6423,-4.638 -4.0127,-5.0169 -18.7911,-19.2214 l -9.0397,-8.6887 -3.8346,-1.0452 -3.8346,-1.0453 -1.7035,-3.0161 c -0.9369,-1.6588 -2.4565,-3.016 -3.3769,-3.016 -0.9204,0 -4.9342,-1.8 -8.9196,-4 -3.9854,-2.2 -8.2551,-4 -9.4882,-4 h -2.2421 l -3.1348,-3.3648 c -4.1664,-4.4721 -5.9523,-5.2747 -13.6349,-6.1278 l -6.5,-0.7218 -1.7067,-1.5086 c -2.0434,-1.8062 -14.007,-5.2069 -18.4617,-5.2479 l -3.1684,-0.029 -3.9983,-3.8415 -3.9982,-3.8415 -16.4557,-0.6745 -16.4557,-0.6745 -5.2671,-1.5642 c -2.8969,-0.8602 -6.1481,-1.3337 -7.2248,-1.0522 -1.0767,0.2816 -4.5014,0.036 -7.6105,-0.5448 -3.1091,-0.5813 -7.2279,-1.1717 -9.1529,-1.312 -1.925,-0.1404 -5.6429,-0.7622 -8.2619,-1.3819 l -4.7619,-1.1267 -279.5891,0.01 c -153.774,0.01 -280.036,0.2865 -280.5822,0.6241 l -0.9932,0.6138 0.7972,2.6328 c 0.4385,1.448 1.0434,85.2078 1.3442,186.1328 l 0.5469,183.5 4,-0.2905 c 7.9418,-0.5768 165.0827,-0.1761 168.3608,0.4293 l 3.3608,0.6207 0.8739,-1.3797 0.8739,-1.3798 0.015,-104.384 0.015,-104.384 1.165,-3.8883 1.165,-3.8884 2.085,-0.5062 c 1.1467,-0.2783 54.686,-0.3808 118.9761,-0.2276 l 116.8911,0.2785 1.1089,1.8999 c 1.3771,2.3593 9.3993,10.3636 10.8823,10.8579 0.601,0.2003 1.3478,2.5819 1.6597,5.2925 l 0.5669,4.9282 2.5,1.2005 c 4.1776,2.006 11.6861,9.634 13.3108,13.5225 l 1.5316,3.6657 2.904,1.5016 c 3.9615,2.0486 10.2536,9.1878 10.2536,11.6341 0,1.0984 0.4197,1.9971 0.9326,1.9971 0.5129,0 1.2029,0.8516 1.5333,1.8925 0.3303,1.0408 1.9314,2.4436 3.5579,3.1174 3.1077,1.2872 8.6609,8.2769 10.8648,13.6752 l 1.3003,3.1851 2.8473,0.9926 2.8474,0.9926 2.8082,4.2068 c 1.5445,2.3137 3.5076,5.2474 4.3625,6.5193 0.8549,1.2719 3.5549,4.2811 6,6.687 2.4451,2.406 6.0207,6.7 7.9457,9.5422 1.925,2.8422 3.8675,5.1725 4.3167,5.1785 0.4492,0.01 2.3122,1.1515 4.1401,2.5456 l 3.3233,2.5349 1.0631,4.2218 1.0631,4.2219 3.0468,1.7998 c 1.6758,0.99 3.0469,2.4094 3.0469,3.1544 0,0.7451 1.4625,2.5753 3.25,4.0672 1.7875,1.492 3.7328,3.5887 4.3229,4.6594 1.2297,2.2313 5.4627,7.0275 17.2153,19.5058 4.5585,4.84 8.5176,9.7042 8.798,10.8093 0.2804,1.1051 1.792,2.7451 3.3592,3.6446 l 2.8494,1.6353 0.6895,3.1393 0.6895,3.1393 2.5236,1.6535 c 1.3879,0.9094 3.7892,2.9192 5.3361,4.4661 1.547,1.5469 3.517,2.8126 4.3778,2.8126 h 1.5651 l 0.6786,4.2437 0.6786,4.2437 2.615,2.5063 c 1.4383,1.3785 4.2903,3.9816 6.3379,5.7848 2.0476,1.8032 4.925,5.0951 6.3944,7.3154 1.4693,2.2203 3.9422,4.6941 5.4953,5.4972 l 2.8238,1.4603 v 3.9029 3.9028 l 1.5714,1.5715 c 0.8643,0.8643 2.2323,1.5714 3.0401,1.5714 2.0725,0 9.5985,7.9237 10.8463,11.4196 l 1.0422,2.9196 3.4702,1.1596 3.4702,1.1596 2.0902,5.1997 2.0902,5.1997 3.9396,2.6106 c 6.4517,4.2754 9.4126,7.5176 10.4779,11.4737 l 1.0063,3.7373 1.9784,0.6279 c 1.0881,0.3453 3.1564,2.1725 4.5964,4.0603 1.4399,1.8878 3.2222,3.4324 3.9607,3.4324 h 1.3428 l 1.0952,4.0671 1.0951,4.0672 3.3991,2.0054 c 1.8695,1.1031 3.6706,2.8611 4.0025,3.9068 0.3319,1.0457 1.5916,2.7006 2.7994,3.6774 1.2077,0.9769 3.0335,3.1261 4.0571,4.7761 1.0237,1.65 5.4373,6.5164 9.8081,10.8143 l 7.9469,7.8143 -0.1739,2.1857 c -0.3221,4.0508 0.037,4.7468 3.5033,6.792 1.9006,1.1214 3.7325,2.9112 4.0708,3.9773 0.3384,1.0661 1.9318,2.6192 3.5409,3.4513 l 2.9257,1.5129 1.4524,3.4761 c 0.7989,1.9119 1.8538,3.4761 2.3443,3.4761 0.4906,0 2.651,1.7186 4.8011,3.819 2.15,2.1005 4.6096,4.238 5.4657,4.75 0.8562,0.5121 2.4581,3.181 3.5599,5.931 l 2.0032,5 3.6333,1.9775 c 1.9983,1.0875 4.1416,3.0931 4.7629,4.4568 0.6214,1.3637 1.9969,3.0868 3.0569,3.8292 1.06,0.7425 1.9272,2.1637 1.9272,3.1583 0,2.7814 3.6232,6.7528 6.7271,7.3736 l 2.7881,0.5576 2.4358,3.2945 c 1.3396,1.812 2.6913,4.8673 3.0038,6.7896 l 0.5681,3.495 4.0233,3.0339 c 3.5682,2.6908 6.9023,6.2582 14.7515,15.784 1.2463,1.5125 2.7171,2.75 3.2685,2.75 1.5395,0 4.6815,5.9122 4.036,7.5944 l -0.5721,1.4908 3.3868,1.9983 3.3868,1.9982 0.6337,2.5251 0.6338,2.525 3.347,1.3985 3.3471,1.3985 0.6318,2.5174 0.6319,2.5174 2.9855,1.5439 c 2.6976,1.395 3.4627,2.8956 3.0983,6.0766 -0.1669,1.4558 7.4925,8.5428 11.257,10.4159 l 3.0147,1.5 2.5578,5.1101 2.5577,5.1102 2.7916,1.6172 c 1.5353,0.8894 3.4605,3.2184 4.2782,5.1753 l 1.4867,3.5582 2.4717,0.9397 c 1.3595,0.5169 2.5281,1.4009 2.5968,1.9645 0.069,0.5637 0.1813,1.5873 0.25,2.2748 0.069,0.6875 1.8125,2.0746 3.875,3.0824 l 3.75,1.8323 v 3.4687 3.4687 l 3.3787,1.4117 c 4.1242,1.7232 4.6213,2.9096 4.6213,11.029 v 6.3793 l -2.1886,2.0389 c -1.2037,1.1215 -2.5766,2.039 -3.051,2.039 -0.4743,0 -1.5092,1.5479 -2.2997,3.4398 l -1.4372,3.4398 -2.7618,1.3178 -2.7617,1.3177 -1.2739,4.0156 -1.2739,4.0156 -2.1189,0.9769 -2.1189,0.9768 -1.6255,4.4725 -1.6255,4.4725 -3.4817,2.3074 c -1.9149,1.2691 -3.9317,3.5474 -4.4817,5.0628 -0.55,1.5155 -2.0557,3.8645 -3.346,5.2201 -1.2903,1.3556 -2.7448,3.4853 -3.2321,4.7326 -0.4873,1.2474 -1.9251,2.663 -3.1951,3.1459 -3.0177,1.1473 -4.1203,2.6895 -5.584,7.8099 l -1.2073,4.2237 -3.3909,2.5864 c -1.8649,1.4224 -3.852,3.9093 -4.4157,5.5262 -0.5637,1.617 -1.6978,2.94 -2.5202,2.94 -1.9568,0 -4.6087,3.8449 -4.6087,6.682 0,1.2304 -1.039,3.2678 -2.3089,4.5275 -1.2699,1.2598 -3.5263,4.203 -5.0142,6.5405 -1.4879,2.3375 -3.3739,4.25 -4.1911,4.25 -0.8172,0 -2.3858,0.9 -3.4858,2 l -2,2 -0.012,3.25 -0.012,3.25 -3.9474,4.25 c -2.1711,2.3375 -4.5708,4.25 -5.3326,4.25 -2.1604,0 -4.2736,3.0651 -5.6628,8.2134 l -1.2717,4.7135 -2.3595,1.546 c -1.2977,0.8502 -3.0281,2.839 -3.8454,4.4193 l -1.4859,2.8735 -2.5703,0.6451 -2.5702,0.6451 -0.9647,2.5371 c -0.5305,1.3955 -0.9646,4.2758 -0.9646,6.4007 v 3.8634 l -1.5714,1.5715 -1.5715,1.5714 h -4.5446 -4.5445 l -4.8869,-3.5873 -4.8868,-3.5872 -0.6063,-2.4157 c -0.3335,-1.3286 -1.9072,-3.5103 -3.4971,-4.8482 -1.59,-1.3379 -2.8909,-3.0752 -2.8909,-3.8607 0,-1.7124 -4.7909,-6.7009 -6.4355,-6.7009 -0.6395,0 -1.7309,-1.5714 -2.4254,-3.4919 l -1.2627,-3.4919 -6.9236,-6.1989 -6.9236,-6.1988 -1.141,-3.5593 c -1.3218,-4.1229 -3.6222,-7.0592 -5.5306,-7.0592 -0.7329,0 -2.4688,-1.8 -3.8576,-4 -1.3888,-2.2 -3.1595,-4 -3.935,-4 h -1.4099 l -1.2301,-3.7273 c -0.6766,-2.05 -2.5156,-5.0875 -4.0867,-6.75 -7.7591,-8.2105 -11.3663,-12.2853 -13.299,-15.0227 -1.1649,-1.65 -3.6365,-5.1192 -5.4924,-7.7093 l -3.3745,-4.7092 -2.8258,-0.9851 -2.8259,-0.9851 -1.6907,-3.5455 c -0.9299,-1.9501 -2.5096,-3.8054 -3.5104,-4.123 -1.0008,-0.3177 -1.8196,-1.4261 -1.8196,-2.4631 0,-1.0371 -0.5351,-3.06 -1.1891,-4.4955 l -1.1892,-2.6099 -2.735,-0.547 -2.735,-0.547 -1.1683,-2.8204 c -0.6425,-1.5512 -4.0738,-5.6105 -7.625,-9.0205 -3.5513,-3.4101 -7.562,-8.3811 -8.9128,-11.0468 l -2.456,-4.8466 -2.9239,-1.512 c -1.6082,-0.8317 -3.2075,-2.4053 -3.554,-3.4971 -0.3465,-1.0917 -1.9534,-2.9273 -3.5708,-4.079 -1.6175,-1.1518 -2.9409,-2.8576 -2.9409,-3.7908 0,-4.6765 -6.6892,-13.6536 -11.7938,-15.8277 l -3.2937,-1.4028 -2.7063,-4.6445 c -3.7865,-6.4986 -9.0997,-12.2921 -11.2729,-12.2921 -2.2288,0 -3.8477,-2.6115 -3.1864,-5.1403 0.6664,-2.5482 -2.2136,-6.6447 -4.9472,-7.0369 l -2.2496,-0.3228 -1.2403,-2.5 c -0.6822,-1.375 -2.2534,-2.7417 -3.4917,-3.0372 l -2.2513,-0.5372 -0.6559,-3.2066 c -0.863,-4.2199 -2.3488,-5.8784 -6.4909,-7.2454 -1.881,-0.6208 -3.42,-1.6842 -3.42,-2.3631 0,-0.6789 -1.35,-2.2325 -3,-3.4524 -1.65,-1.2199 -3,-2.8223 -3,-3.5609 0,-2.6242 -4.1729,-10.7254 -5.8231,-11.3049 -2.6513,-0.931 -10.2994,-9.4894 -11.4317,-12.7923 -1.2452,-3.6324 -3.5979,-6.5 -5.3328,-6.5 -0.7027,0 -1.5634,-0.9003 -1.9126,-2.0007 -0.3493,-1.1003 -2.1796,-3.1787 -4.0674,-4.6187 -1.8878,-1.4399 -3.4324,-3.3933 -3.4324,-4.3409 0,-1.8024 -0.8547,-2.7336 -10.2546,-11.1724 l -5.7547,-5.1662 -1.1704,-4.1005 c -1.568,-5.4932 -2.5537,-6.6006 -5.8754,-6.6006 h -2.8101 l -0.651,-2.051 c -0.358,-1.1281 -1.9634,-3.3936 -3.5674,-5.0345 -1.604,-1.6409 -2.9164,-3.7982 -2.9164,-4.794 0,-1.9638 -2.9579,-5.1205 -4.798,-5.1205 -0.6273,0 -2.737,-2.3625 -4.6882,-5.25 -7.1061,-10.516 -9.7446,-13.8551 -12.2406,-15.4906 -1.4003,-0.9175 -3.1724,-3.1672 -3.9379,-4.9993 l -1.3918,-3.3311 -2.4438,-0.9291 -2.4438,-0.9292 -0.6462,-2.5747 c -0.3555,-1.416 -2.168,-3.7354 -4.028,-5.154 -1.8599,-1.4187 -3.3824,-3.0885 -3.3833,-3.7107 0,-1.599 -7.4393,-12.1313 -8.5661,-12.1313 h -0.9327 l -0.5,317.7 -0.5,317.7001 -1.2999,1.2999 -1.2998,1.3 -114.7002,0.1932 -114.7001,0.1932 z m 555.8538,-268.2779 c 0.7581,-2.0615 -0.2905,-3.75 -2.329,-3.75 -2.156,0 -2.5306,1.9861 -0.7167,3.8 1.536,1.536 2.4681,1.5207 3.0457,-0.05 z m 496.7543,-672.25 c 0,-0.275 -0.225,-0.5 -0.5,-0.5 -0.275,0 -0.5,0.225 -0.5,0.5 0,0.275 0.225,0.5 0.5,0.5 0.275,0 0.5,-0.225 0.5,-0.5 z m -433,-275 c 0,-0.275 -0.225,-0.5 -0.5,-0.5 -0.275,0 -0.5,0.225 -0.5,0.5 0,0.275 0.225,0.5 0.5,0.5 0.275,0 0.5,-0.225 0.5,-0.5 z m -788,-107.5173 c 3.025,-0.4477 114.625,-0.8551 248,-0.9054 l 242.5,-0.091 31.8634,-1.0212 31.8634,-1.0212 1.5492,1.2783 1.5492,1.2783 0.3618,-1.0732 0.3618,-1.0732 2.9848,0.438 c 1.6416,0.241 3.5727,-0.05 4.2914,-0.6464 0.7187,-0.5964 3.8841,-1.3874 7.0342,-1.7576 l 5.7274,-0.6731 1.2133,-1.7323 1.2133,-1.7322 h 2.7345 c 4.1585,0 8.8579,-2.1893 12.9013,-6.0104 l 3.6491,-3.4483 8.8509,-0.5219 8.851,-0.5218 1.75,-1.5288 c 0.9625,-0.8408 1.75,-2.128 1.75,-2.8604 0,-0.7323 1.6875,-2.0354 3.75,-2.8957 2.0625,-0.8602 5.1,-2.8354 6.75,-4.3892 l 3,-2.8251 4.5,-0.5591 4.5,-0.5592 3,-3.3955 c 1.65,-1.8675 5.475,-5.465 8.5,-7.9944 8.6327,-7.2182 21.5669,-19.9912 23.008,-22.7212 0.7203,-1.3646 2.339,-3.2907 3.597,-4.2803 1.2581,-0.9896 2.825,-3.2859 3.4821,-5.1029 l 1.1946,-3.3036 2.8591,-1.0793 2.8592,-1.0792 v -2.7208 c 0,-1.4965 0.4951,-4.3733 1.1002,-6.3929 l 1.1001,-3.672 2.1253,-0.944 c 2.7268,-1.2112 4.4547,-4.7417 5.1865,-10.5973 l 0.5815,-4.6534 2.3493,-0.5896 2.3493,-0.5897 1.0449,-6.257 c 0.5746,-3.4413 1.3597,-8.9361 1.7445,-12.2106 l 0.6997,-5.9536 1.7323,-1.5464 c 0.9527,-0.8505 2.4644,-3.468 3.3593,-5.8166 l 1.6271,-4.2703 0.015,-29.7297 0.014,-29.7298 -2.2472,-7 c -1.236,-3.85 -2.8475,-7.4659 -3.5812,-8.0353 l -1.334,-1.0354 -0.9232,-7.4646 c -1.3906,-11.2434 -1.8023,-12.5084 -4.997,-15.3549 l -2.9464,-2.6252 -0.015,-2.2423 c -0.01,-1.2333 -0.6105,-4.2673 -1.3381,-6.7423 l -1.323,-4.5 -2.1337,-0.975 c -1.1736,-0.5363 -2.6446,-2.3363 -3.2689,-4 -2.694,-7.1794 -5.1274,-10.3628 -17.5047,-22.8996 -12.0569,-12.2123 -19.4164,-18.7022 -19.4164,-17.1223 0,0.3516 -1.5156,-0.9677 -3.3681,-2.9319 -1.8524,-1.9642 -4.2164,-3.5712 -5.2532,-3.5712 -1.0369,0 -3.0993,-1.2863 -4.5831,-2.8585 -2.9245,-3.0984 -6.2421,-4.6514 -11.949,-5.5931 l -3.6535,-0.6028 -0.5753,-1.4992 c -0.6854,-1.7861 -7.5276,-4.8525 -13.1178,-5.8789 -2.2,-0.404 -6.0159,-2.0643 -8.4797,-3.6896 -2.4639,-1.6253 -5.3889,-3.1141 -6.5,-3.3085 -1.1112,-0.1944 -4.5114,-0.8081 -7.5561,-1.3637 -3.0447,-0.5556 -6.7174,-0.7844 -8.1615,-0.5083 l -2.6257,0.5019 -1.0642,-1.9885 -1.0642,-1.9885 -6.2743,-1.2479 c -3.4509,-0.6863 -11.8993,-1.6182 -18.7743,-2.0709 -6.875,-0.4527 -13.4,-0.8823 -14.5,-0.9546 -7.446,-0.4893 -549.5918,0.1491 -550.8938,0.6487 l -1.6387,0.6288 0.6067,6.1368 c 0.3337,3.3753 0.6785,81.3302 0.7662,173.2332 l 0.1596,167.0964 1.4301,1.7231 1.4302,1.7231 2.0698,-0.6712 c 1.1385,-0.3692 4.5449,-1.0375 7.5699,-1.4851 z m 1284.7715,-44.5445 c -0.3352,-0.3352 -1.1485,0.4415 -1.8073,1.7262 l -1.1978,2.3356 1.8073,-1.7262 c 0.994,-0.9494 1.533,-2.0004 1.1978,-2.3356 z m -385.7715,-358.4382 c 0,-0.55 -0.45,-1 -1,-1 -0.55,0 -1,0.45 -1,1 0,0.55 0.45,1 1,1 0.55,0 1,-0.45 1,-1 z M 1235.8205,1024.7179 c -0.3667,-0.3666 -0.6667,-0.067 -0.6667,0.6667 0,0.7333 0.3,1.0333 0.6667,0.6667 0.3666,-0.3667 0.3666,-0.9667 0,-1.3334 z m 431.8333,0.6667 0.618,-1 -2.309,0.015 -2.309,0.015 1.5,0.9694 c 1.8607,1.2025 1.7568,1.2025 2.5,0 z m 9,0 c -0.3399,-0.55 -1.518,-1 -2.618,-1 h -2 l 0.618,1 c 0.3399,0.55 1.518,1 2.618,1 h 2 z m 192.5,-0.607 c 0,-0.2161 -0.9266,-0.393 -2.059,-0.393 h -2.059 l 0.591,0.9563 c 0.5336,0.8634 3.527,0.3853 3.527,-0.5633 z m -440.3333,-0.06 c -0.3667,-0.3666 -0.9667,-0.3666 -1.3334,0 -0.3666,0.3667 -0.067,0.6667 0.6667,0.6667 0.7333,0 1.0333,-0.3 0.6667,-0.6667 z m 33.6023,0.011 c -0.677,-0.274 -2.027,-0.2906 -3,-0.037 l -1.769,0.461 3,0.037 c 1.65,0.02 2.4461,-0.1871 1.769,-0.461 z m 66.731,0.156 c 0,-0.275 -0.225,-0.5 -0.5,-0.5 -0.275,0 -0.5,0.225 -0.5,0.5 0,0.275 0.225,0.5 0.5,0.5 0.275,0 0.5,-0.225 0.5,-0.5 z m 2,0 c 0,-0.275 -0.225,-0.5 -0.5,-0.5 -0.275,0 -0.5,0.225 -0.5,0.5 0,0.275 0.225,0.5 0.5,0.5 0.275,0 0.5,-0.225 0.5,-0.5 z m 5.7292,-0.1042 c -0.3323,-0.3323 -1.1948,-0.3678 -1.9167,-0.079 l -1.3125,0.5252 1.9167,0.079 c 1.0541,0.043 1.6448,-0.193 1.3125,-0.5253 z m 2.2708,0.1042 c 0,-0.275 -0.225,-0.5 -0.5,-0.5 -0.275,0 -0.5,0.225 -0.5,0.5 0,0.275 0.225,0.5 0.5,0.5 0.275,0 0.5,-0.225 0.5,-0.5 z m 106.7292,-0.1042 c -0.3323,-0.3323 -1.1948,-0.3678 -1.9167,-0.079 l -1.3125,0.5252 1.9167,0.079 c 1.0541,0.043 1.6448,-0.193 1.3125,-0.5253 z m 107.2708,0.1042 c 0,-0.275 -0.225,-0.5 -0.5,-0.5 -0.275,0 -0.5,0.225 -0.5,0.5 0,0.275 0.225,0.5 0.5,0.5 0.275,0 0.5,-0.225 0.5,-0.5 z m 159.75,-0.2163 c -1.5125,-0.2291 -3.9875,-0.2291 -5.5,0 -1.5125,0.2292 -0.275,0.4166 2.75,0.4166 3.025,0 4.2625,-0.1874 2.75,-0.4166 z m 64.25,0.2163 c 0,-0.275 -0.225,-0.5 -0.5,-0.5 -0.275,0 -0.5,0.225 -0.5,0.5 0,0.275 0.225,0.5 0.5,0.5 0.275,0 0.5,-0.225 0.5,-0.5 z m 2,0 c 0,-0.275 -0.225,-0.5 -0.5,-0.5 -0.275,0 -0.5,0.225 -0.5,0.5 0,0.275 0.225,0.5 0.5,0.5 0.275,0 0.5,-0.225 0.5,-0.5 z m 7.269,-0.1559 c -0.677,-0.274 -2.027,-0.2906 -3,-0.037 l -1.769,0.461 3,0.037 c 1.65,0.02 2.4461,-0.1871 1.769,-0.461 z m 6,0 c -0.677,-0.274 -2.027,-0.2906 -3,-0.037 l -1.769,0.461 3,0.037 c 1.65,0.02 2.4461,-0.1871 1.769,-0.461 z m 2.731,0.1559 c 0,-0.275 -0.225,-0.5 -0.5,-0.5 -0.275,0 -0.5,0.225 -0.5,0.5 0,0.275 0.225,0.5 0.5,0.5 0.275,0 0.5,-0.225 0.5,-0.5 z"
       id="path1" />
  </g>
</svg>
